<?xml version="1.0" standalone="no"?>
<!DOCTYPE svg PUBLIC "-//W3C//DTD SVG 20010904//EN"
 "http://www.w3.org/TR/2001/REC-SVG-20010904/DTD/svg10.dtd">
<svg version="1.0" xmlns="http://www.w3.org/2000/svg"
 width="500.000000pt" height="500.000000pt" viewBox="0 0 500.000000 500.000000"
 preserveAspectRatio="xMidYMid meet">
<metadata>
Created by potrace 1.14, written by Peter Selinger 2001-2017
</metadata>
<g transform="translate(0.000000,500.000000) scale(0.100000,-0.100000)"
fill="#000000" stroke="none">
<path d="M3187 4910 c-43 -9 -80 -17 -82 -18 -3 -1 -17 -4 -33 -8 -42 -9 -129
-42 -191 -72 -343 -164 -589 -478 -667 -852 -20 -92 -25 -306 -11 -417 23
-183 112 -395 236 -557 155 -204 390 -362 636 -429 146 -40 192 -45 350 -42
153 3 247 19 375 63 345 120 633 413 748 762 46 139 60 235 57 395 -3 153 -5
176 -31 278 -76 301 -257 552 -520 723 -126 83 -303 153 -449 179 -88 16 -337
13 -418 -5z"/>
<path d="M750 2441 l0 -2361 680 0 680 0 0 2028 c0 1817 -2 2034 -16 2097 -20
85 -56 176 -95 233 -16 24 -29 46 -29 50 0 8 -104 117 -141 147 -69 57 -177
112 -274 141 -51 14 -116 18 -432 21 l-373 5 0 -2361z"/>
</g>
</svg>
